<svg width="113" height="113" viewBox="0 0 113 113" fill="none" xmlns="http://www.w3.org/2000/svg">
<path d="M45.5984 10.9985C33.0425 13.7952 22.7509 20.7459 15.6702 31.2746C3.27904 49.8234 5.74904 74.7059 21.557 90.5813C26.2912 95.3522 33.4954 99.9585 38.9294 101.727C40.9465 102.385 41.1935 102.385 42.0992 101.768C43.0872 101.11 43.1284 100.946 43.1284 96.2158V91.3627L39.5057 91.5684C35.2655 91.774 31.9722 91.0337 29.9962 89.3475C29.2964 88.7717 27.9379 86.7975 26.991 84.9879C25.4267 81.9444 24.274 80.5461 21.063 77.7082C19.9927 76.7623 19.9515 76.7211 20.6925 76.1865C22.4627 74.8704 26.0442 76.1454 28.3084 78.8598C32.2604 83.6718 33.7835 84.9468 36.0477 85.4403C38.0649 85.8516 39.9174 85.6871 42.7167 84.8645C43.0872 84.7411 43.5812 83.8774 43.8282 82.8904C44.0752 81.9444 44.7339 80.5049 45.269 79.7235L46.257 78.284L42.9225 77.626C35.9242 76.1865 31.6017 73.6777 28.7612 69.4004C26.1265 65.4521 25.262 62.0384 25.2209 55.6636C25.2209 49.6589 25.8795 47.1912 28.473 43.8187C29.6257 42.3381 29.7492 41.8857 29.4199 41.022C28.8024 39.5414 28.967 33.2899 29.6257 31.398C30.1609 29.9997 30.449 29.7529 31.5605 29.6295C33.413 29.4239 36.871 30.6166 40.3702 32.5907L43.3754 34.3181L46.01 33.7012C49.7562 32.8375 60.9947 32.8786 64.3704 33.7012L66.9227 34.3593L69.3104 32.9198C72.4802 31.0279 76.5145 29.5473 78.5317 29.5473C80.1372 29.5473 80.1372 29.5884 80.7959 31.6859C81.4957 34.1125 81.6192 38.5132 81.0017 40.6107C80.6724 41.8446 80.7547 42.2147 81.6604 43.4074C86.1475 49.3299 86.6415 59.1595 82.8542 67.2206C80.3019 72.5261 74.909 76.2276 67.6637 77.5848L64.2057 78.2429L65.4819 80.5049L66.7992 82.8081L66.9227 91.9797L67.0874 101.151L68.1165 101.809C69.0634 102.426 69.2692 102.426 71.2452 101.727C74.5385 100.617 80.1784 97.5731 83.2659 95.2288C101.626 81.492 107.554 56.8563 97.386 36.3745C91.4169 24.324 80.1372 15.0702 67.2109 11.6154C61.571 10.1348 50.95 9.80581 45.5984 10.9985Z" fill="black"/>
</svg>
