<svg width="375" height="246" viewBox="0 0 375 246" fill="none" xmlns="http://www.w3.org/2000/svg">
<g style="mix-blend-mode:screen" filter="url(#filter0_f_7_36)">
<path d="M-158.527 86.8183C-10.1448 388.271 -364.522 187.076 -68.5421 410.982C-56.874 419.809 -24.3356 416.857 -11.1404 423.361C6.73559 432.173 35.652 454.665 80.9243 500.997C180.105 602.502 190.476 520.667 182.94 462.678C182.504 459.317 180.89 456.212 178.387 453.721C73.6149 349.44 -67.3313 167.493 180.462 245.631C429.756 324.241 214.057 64.6109 72.6866 -77.5273C70.9526 -79.2707 68.9286 -80.575 66.5928 -81.442C-61.2696 -128.907 -280.069 -160.104 -158.527 86.8183Z" fill="#00FFA3"/>
</g>
<defs>
<filter id="filter0_f_7_36" x="-274.082" y="-194.184" width="648.817" height="823.281" filterUnits="userSpaceOnUse" color-interpolation-filters="sRGB">
<feFlood flood-opacity="0" result="BackgroundImageFix"/>
<feBlend mode="normal" in="SourceGraphic" in2="BackgroundImageFix" result="shape"/>
<feGaussianBlur stdDeviation="40" result="effect1_foregroundBlur_7_36"/>
</filter>
</defs>
</svg>
