<svg width="210" height="160" viewBox="0 0 210 160" fill="none" xmlns="http://www.w3.org/2000/svg">
<g style="mix-blend-mode:screen" filter="url(#filter0_f_7_43)">
<path d="M25.6429 62.3353C79.0077 265.538 -68.6596 125.272 36.6174 265.443C45.5543 277.342 86.5921 304.72 95.1873 316.916C101.845 326.362 109.878 339.104 119.531 355.998C162.151 430.59 172.119 378.315 171.895 339.299C171.879 336.469 171.128 333.819 169.775 331.511C124.323 254.03 66.1706 123.202 183.16 194.149C300.923 265.565 210.51 77.4167 149.193 -28.1041C148.157 -29.8883 146.823 -31.3453 145.169 -32.4763C84.9037 -73.7068 -19.693 -110.295 25.6429 62.3353Z" fill="#00FFA3"/>
</g>
<defs>
<filter id="filter0_f_7_43" x="-82.2921" y="-146.826" width="402.779" height="620.615" filterUnits="userSpaceOnUse" color-interpolation-filters="sRGB">
<feFlood flood-opacity="0" result="BackgroundImageFix"/>
<feBlend mode="normal" in="SourceGraphic" in2="BackgroundImageFix" result="shape"/>
<feGaussianBlur stdDeviation="40" result="effect1_foregroundBlur_7_43"/>
</filter>
</defs>
</svg>
